<svg viewBox="0 0 100 100" xmlns="http://www.w3.org/2000/svg"><circle cx="50" cy="74" r="10" fill="#4AADCF" stroke="#3890B0" stroke-width="2"/><path d="M42 66 L34 22 Q33 16 38 14 L50 10 L62 14 Q67 16 66 22 L58 66" fill="none" stroke="#E0E0E0" stroke-width="2"/><path d="M38 18 L62 18" fill="none" stroke="#E0E0E0" stroke-width="1.5"/><path d="M36 28 L64 28" fill="none" stroke="#E0E0E0" stroke-width="1.5"/><path d="M37 38 L63 38" fill="none" stroke="#E0E0E0" stroke-width="1.5"/><path d="M39 48 L61 48" fill="none" stroke="#E0E0E0" stroke-width="1.5"/><path d="M40 58 L60 58" fill="none" stroke="#E0E0E0" stroke-width="1.5"/><line x1="50" y1="10" x2="50" y2="66" stroke="#E0E0E0" stroke-width="1.5"/><path d="M34 22 Q50 30 66 22" fill="none" stroke="#E0E0E0" stroke-width="1"/><path d="M36 32 Q50 40 64 32" fill="none" stroke="#E0E0E0" stroke-width="1"/><path d="M37 42 Q50 50 63 42" fill="none" stroke="#E0E0E0" stroke-width="1"/></svg>