<svg viewBox="0 0 100 100" xmlns="http://www.w3.org/2000/svg"><path d="M38 18 C34 18 32 22 33 28 L31 50 C30 56 30 62 33 68 L34 74 C34 78 36 80 40 80 L44 80 C48 80 50 78 50 74 L51 68 C54 62 54 56 53 50 L51 28 C52 22 50 18 46 18 Z" fill="#E0E0E0" stroke="#9E9E9E" stroke-width="2"/><ellipse cx="42" cy="26" rx="3" ry="2" fill="#D94040"/><circle cx="72" cy="68" r="16" fill="#1A9E9E" stroke="#15807E" stroke-width="2"/><circle cx="68" cy="62" r="2.5" fill="#15807E"/><circle cx="76" cy="62" r="2.5" fill="#15807E"/><circle cx="72" cy="69" r="2.5" fill="#15807E"/></svg>