<svg viewBox="0 0 100 100" xmlns="http://www.w3.org/2000/svg"><ellipse cx="50" cy="72" rx="30" ry="8" fill="#16A34A" stroke="#128A3E" stroke-width="1.5"/><ellipse cx="50" cy="60" rx="30" ry="8" fill="#3B82D6" stroke="#2A6AB8" stroke-width="1.5"/><ellipse cx="50" cy="48" rx="30" ry="8" fill="#D94040" stroke="#A33030" stroke-width="1.5"/><rect x="20" y="48" width="60" height="12" fill="#3B82D6" stroke="none"/><rect x="20" y="60" width="60" height="12" fill="#16A34A" stroke="none"/><line x1="20" y1="48" x2="20" y2="72" stroke="#128A3E" stroke-width="1.5"/><line x1="80" y1="48" x2="80" y2="72" stroke="#128A3E" stroke-width="1.5"/><ellipse cx="50" cy="36" rx="30" ry="8" fill="#E8922E" stroke="#C47A20" stroke-width="1.5"/><rect x="20" y="36" width="60" height="12" fill="#D94040" stroke="none"/><line x1="20" y1="36" x2="20" y2="48" stroke="#A33030" stroke-width="1.5"/><line x1="80" y1="36" x2="80" y2="48" stroke="#A33030" stroke-width="1.5"/><ellipse cx="50" cy="24" rx="30" ry="8" fill="#E8922E" stroke="#C47A20" stroke-width="1.5"/><rect x="20" y="24" width="60" height="12" fill="#E8922E" stroke="none"/><line x1="20" y1="24" x2="20" y2="36" stroke="#C47A20" stroke-width="1.5"/><line x1="80" y1="24" x2="80" y2="36" stroke="#C47A20" stroke-width="1.5"/><ellipse cx="50" cy="24" rx="30" ry="8" fill="#D94040" stroke="#A33030" stroke-width="1.5"/></svg>