<svg viewBox="0 0 100 100" xmlns="http://www.w3.org/2000/svg"><circle cx="50" cy="50" r="38" fill="#E8E8E8" stroke="#4A5568" stroke-width="2.5"/><polygon points="50,22 60,32 56,44 44,44 40,32" fill="#4A5568"/><polygon points="28,52 24,40 34,32 44,38 40,50" fill="#4A5568"/><polygon points="72,52 76,40 66,32 56,38 60,50" fill="#4A5568"/><polygon points="36,68 40,56 50,54 60,56 64,68 56,76 44,76" fill="#4A5568"/><line x1="50" y1="22" x2="50" y2="12" stroke="#4A5568" stroke-width="1.5"/><line x1="24" y1="40" x2="16" y2="34" stroke="#4A5568" stroke-width="1.5"/><line x1="76" y1="40" x2="84" y2="34" stroke="#4A5568" stroke-width="1.5"/><line x1="36" y1="76" x2="28" y2="82" stroke="#4A5568" stroke-width="1.5"/><line x1="64" y1="76" x2="72" y2="82" stroke="#4A5568" stroke-width="1.5"/></svg>