<svg viewBox="0 0 100 100" xmlns="http://www.w3.org/2000/svg"><ellipse cx="50" cy="50" rx="42" ry="44" fill="#3A5068" stroke="#8CB8D4" stroke-width="3"/><ellipse cx="50" cy="50" rx="38" ry="40" fill="none" stroke="#8CB8D4" stroke-width="1.5"/><polygon points="50,18 28,68 72,68" fill="#8CB8D4" stroke="#6A9AB8" stroke-width="1.5"/><polygon points="50,18 35,55 65,55" fill="#A8D0E8" stroke="#8CB8D4" stroke-width="1"/><polygon points="50,28 40,52 60,52" fill="#C8E4F2"/><polygon points="38,55 28,68 48,68 42,58" fill="#D0E8F4" opacity="0.7"/><polygon points="55,50 65,68 72,68 60,52" fill="#D0E8F4" opacity="0.5"/><path d="M28 68L22 75L35 72L42 78L50 70L58 78L65 72L78 75L72 68Z" fill="#D0E8F4" stroke="#8CB8D4" stroke-width="1"/><circle cx="35" cy="42" r="2" fill="#D0E8F4" opacity="0.6"/><circle cx="62" cy="38" r="1.5" fill="#D0E8F4" opacity="0.6"/><circle cx="45" cy="35" r="1.5" fill="#D0E8F4" opacity="0.5"/></svg>