<svg viewBox="0 0 100 100" xmlns="http://www.w3.org/2000/svg"><path d="M50 5L10 30V65L50 95L90 65V30Z" fill="#1B4A20" stroke="#D4A017" stroke-width="3"/><path d="M50 8L13 31V63L50 91L87 63V31Z" fill="none" stroke="#D4A017" stroke-width="1.5"/><path d="M50 28C38 28 30 35 30 42C30 50 36 52 40 52C40 52 35 48 35 42C35 38 40 32 50 32C60 32 65 38 65 42C65 48 60 52 60 52C64 52 70 50 70 42C70 35 62 28 50 28Z" fill="#2E7D32" stroke="#D4A017" stroke-width="1.5"/><ellipse cx="50" cy="42" rx="10" ry="12" fill="#388E3C" stroke="#2E7D32" stroke-width="1.2"/><circle cx="46" cy="39" r="2" fill="#D4A017"/><circle cx="54" cy="39" r="2" fill="#D4A017"/><circle cx="46" cy="39" r="0.8" fill="#1B4A20"/><circle cx="54" cy="39" r="0.8" fill="#1B4A20"/><path d="M48 46L50 50L52 46" fill="#C62828" stroke="#B71C1C" stroke-width="0.8"/><path d="M50 54C50 54 50 62 48 70C46 75 42 78 42 78" fill="none" stroke="#2E7D32" stroke-width="3" stroke-linecap="round"/><path d="M42 78C42 78 45 76 48 78C51 80 50 82 50 82" fill="none" stroke="#2E7D32" stroke-width="2.5" stroke-linecap="round"/></svg>