<svg viewBox="0 0 100 100" xmlns="http://www.w3.org/2000/svg"><path d="M50 3C50 3 15 15 15 50C15 75 50 97 50 97C50 97 85 75 85 50C85 15 50 3 50 3Z" fill="#4A1A6B" stroke="#D4A017" stroke-width="3"/><path d="M50 7C50 7 19 18 19 50C19 72 50 93 50 93C50 93 81 72 81 50C81 18 50 7 50 7Z" fill="none" stroke="#D4A017" stroke-width="1.5"/><path d="M22 58L28 32L38 48L50 25L62 48L72 32L78 58Z" fill="#D4A017" stroke="#B8860B" stroke-width="1.5"/><path d="M22 58L78 58L75 68L25 68Z" fill="#B8860B" stroke="#D4A017" stroke-width="1.2"/><rect x="25" y="68" width="50" height="6" rx="1" fill="#D4A017" stroke="#B8860B" stroke-width="1"/><circle cx="28" cy="32" r="3.5" fill="#D4A017" stroke="#B8860B" stroke-width="1"/><circle cx="50" cy="25" r="4" fill="#D4A017" stroke="#B8860B" stroke-width="1"/><circle cx="72" cy="32" r="3.5" fill="#D4A017" stroke="#B8860B" stroke-width="1"/><circle cx="38" cy="62" r="3" fill="#7B4DAA" stroke="#D4A017" stroke-width="0.8"/><circle cx="50" cy="62" r="3" fill="#C62828" stroke="#D4A017" stroke-width="0.8"/><circle cx="62" cy="62" r="3" fill="#2E8B57" stroke="#D4A017" stroke-width="0.8"/></svg>