<svg viewBox="0 0 100 100" xmlns="http://www.w3.org/2000/svg"><path d="M50 5L10 30V65L50 95L90 65V30Z" fill="#1A3A2A" stroke="#2E8B57" stroke-width="3"/><path d="M50 8L13 31V63L50 91L87 63V31Z" fill="none" stroke="#2E8B57" stroke-width="1.5"/><path d="M50 35C44 35 38 40 38 48C38 56 44 60 44 60L35 70L40 65L38 75L45 66L48 72L48 62C49 62 51 62 52 62L52 72L55 66L62 75L60 65L65 70L56 60C56 60 62 56 62 48C62 40 56 35 50 35Z" fill="#2E8B57" stroke="#1A5A38" stroke-width="1.2"/><path d="M50 35C46 35 42 39 42 45C42 51 46 54 50 54C54 54 58 51 58 45C58 39 54 35 50 35Z" fill="#3CB371"/><circle cx="46" cy="43" r="2.5" fill="#D4A017"/><circle cx="54" cy="43" r="2.5" fill="#D4A017"/><circle cx="46" cy="43" r="1" fill="#1A3A2A"/><circle cx="54" cy="43" r="1" fill="#1A3A2A"/><path d="M47 48L50 51L53 48" fill="none" stroke="#1A5A38" stroke-width="1.2"/><path d="M42 32L38 22L44 30Z" fill="#2E8B57" stroke="#1A5A38" stroke-width="0.8"/><path d="M58 32L62 22L56 30Z" fill="#2E8B57" stroke="#1A5A38" stroke-width="0.8"/><path d="M46 28L44 20L48 26Z" fill="#3CB371"/><path d="M54 28L56 20L52 26Z" fill="#3CB371"/></svg>