<svg viewBox="0 0 100 100" xmlns="http://www.w3.org/2000/svg"><ellipse cx="50" cy="50" rx="42" ry="44" fill="#8B1A1A" stroke="#D4570A" stroke-width="3"/><ellipse cx="50" cy="50" rx="38" ry="40" fill="none" stroke="#D4570A" stroke-width="1.5"/><path d="M50 78C50 78 30 60 30 45C30 35 35 30 40 28C38 35 42 40 46 38C44 32 46 22 50 18C54 22 56 32 54 38C58 40 62 35 60 28C65 30 70 35 70 45C70 60 50 78 50 78Z" fill="#E85D0A" stroke="#D4570A" stroke-width="1.2"/><path d="M50 75C50 75 38 62 38 50C38 43 42 38 45 36C44 40 47 44 50 42C53 44 56 40 55 36C58 38 62 43 62 50C62 62 50 75 50 75Z" fill="#F4A020"/><path d="M50 72C50 72 44 64 44 56C44 50 47 47 50 46C53 47 56 50 56 56C56 64 50 72 50 72Z" fill="#FFD54F"/></svg>