<svg viewBox="0 0 100 100" xmlns="http://www.w3.org/2000/svg"><path d="M50 3C50 3 15 15 15 50C15 75 50 97 50 97C50 97 85 75 85 50C85 15 50 3 50 3Z" fill="#3A4A5C" stroke="#7A8EA8" stroke-width="3"/><path d="M50 7C50 7 19 18 19 50C19 72 50 93 50 93C50 93 81 72 81 50C81 18 50 7 50 7Z" fill="none" stroke="#7A8EA8" stroke-width="1.5"/><rect x="25" y="45" width="50" height="35" rx="1" fill="#6A7E96" stroke="#7A8EA8" stroke-width="1.2"/><rect x="25" y="22" width="8" height="58" fill="#6A7E96" stroke="#7A8EA8" stroke-width="1"/><rect x="67" y="22" width="8" height="58" fill="#6A7E96" stroke="#7A8EA8" stroke-width="1"/><rect x="44" y="25" width="12" height="55" fill="#6A7E96" stroke="#7A8EA8" stroke-width="1"/><rect x="25" y="18" width="8" height="6" fill="#7A8EA8"/><rect x="67" y="18" width="8" height="6" fill="#7A8EA8"/><rect x="44" y="20" width="12" height="6" fill="#7A8EA8"/><rect x="24" y="18" width="3" height="8" fill="#8A9EB8"/><rect x="31" y="18" width="3" height="8" fill="#8A9EB8"/><rect x="66" y="18" width="3" height="8" fill="#8A9EB8"/><rect x="73" y="18" width="3" height="8" fill="#8A9EB8"/><rect x="43" y="20" width="3" height="7" fill="#8A9EB8"/><rect x="54" y="20" width="3" height="7" fill="#8A9EB8"/><path d="M44 65Q50 55 56 65L56 80L44 80Z" fill="#3A4A5C" stroke="#7A8EA8" stroke-width="1"/><rect x="36" y="50" width="5" height="6" rx="0.5" fill="#3A4A5C" stroke="#7A8EA8" stroke-width="0.8"/><rect x="59" y="50" width="5" height="6" rx="0.5" fill="#3A4A5C" stroke="#7A8EA8" stroke-width="0.8"/></svg>