<svg viewBox="0 0 100 100" xmlns="http://www.w3.org/2000/svg"><ellipse cx="50" cy="50" rx="42" ry="44" fill="#5C3A1E" stroke="#D4A017" stroke-width="3"/><ellipse cx="50" cy="50" rx="38" ry="40" fill="none" stroke="#D4A017" stroke-width="1.5"/><path d="M50 22C50 22 42 28 40 35C38 42 40 48 42 52L30 62L38 58L35 68L42 60L44 65L45 58C48 60 52 60 55 58L56 65L58 60L65 68L62 58L70 62L58 52C60 48 62 42 60 35C58 28 50 22 50 22Z" fill="#D4A017" stroke="#8B6914" stroke-width="1.2"/><path d="M50 22C50 22 45 30 44 36C43 42 45 48 47 50C49 52 51 52 53 50C55 48 57 42 56 36C55 30 50 22 50 22Z" fill="#C49012"/><path d="M50 30L48 36L50 34L52 36Z" fill="#5C3A1E"/><circle cx="47" cy="33" r="1.5" fill="#1A1A1A" stroke="#D4A017" stroke-width="0.5"/><circle cx="53" cy="33" r="1.5" fill="#1A1A1A" stroke="#D4A017" stroke-width="0.5"/></svg>