<svg viewBox="0 0 100 100" xmlns="http://www.w3.org/2000/svg"><path d="M50 5L10 30V65L50 95L90 65V30Z" fill="#1A3A4A" stroke="#2EC4B6" stroke-width="3"/><path d="M50 8L13 31V63L50 91L87 63V31Z" fill="none" stroke="#2EC4B6" stroke-width="1.5"/><path d="M50 25C42 25 36 32 36 40C36 48 42 52 42 52L28 72C28 72 35 65 38 68C38 68 32 78 40 75C40 75 42 68 45 65L48 58" fill="none" stroke="#7B4DAA" stroke-width="3" stroke-linecap="round"/><path d="M50 25C58 25 64 32 64 40C64 48 58 52 58 52L72 72C72 72 65 65 62 68C62 68 68 78 60 75C60 75 58 68 55 65L52 58" fill="none" stroke="#7B4DAA" stroke-width="3" stroke-linecap="round"/><circle cx="50" cy="36" r="12" fill="#7B4DAA" stroke="#2EC4B6" stroke-width="1.5"/><circle cx="46" cy="34" r="2.5" fill="#2EC4B6"/><circle cx="54" cy="34" r="2.5" fill="#2EC4B6"/><circle cx="46" cy="34" r="1" fill="#1A3A4A"/><circle cx="54" cy="34" r="1" fill="#1A3A4A"/><path d="M45 40Q50 44 55 40" fill="none" stroke="#2EC4B6" stroke-width="1.2"/></svg>