<svg viewBox="0 0 100 100" xmlns="http://www.w3.org/2000/svg"><path d="M50 3C50 3 15 15 15 50C15 75 50 97 50 97C50 97 85 75 85 50C85 15 50 3 50 3Z" fill="#8B6914" stroke="#D4A017" stroke-width="3"/><path d="M50 7C50 7 19 18 19 50C19 72 50 93 50 93C50 93 81 72 81 50C81 18 50 7 50 7Z" fill="none" stroke="#D4A017" stroke-width="1.5"/><circle cx="50" cy="48" r="22" fill="#D4A017" stroke="#8B6914" stroke-width="1.5"/><path d="M50 26C38 26 28 33 28 48C28 33 35 22 50 22C65 22 72 33 72 48C72 33 62 26 50 26Z" fill="#C49012" stroke="#8B6914" stroke-width="1"/><path d="M28 48C22 42 20 34 26 28C30 34 28 42 28 48Z" fill="#C49012" stroke="#8B6914" stroke-width="0.8"/><path d="M72 48C78 42 80 34 74 28C70 34 72 42 72 48Z" fill="#C49012" stroke="#8B6914" stroke-width="0.8"/><path d="M32 38C26 35 22 30 25 24C30 28 32 34 32 38Z" fill="#C49012" stroke="#8B6914" stroke-width="0.8"/><path d="M68 38C74 35 78 30 75 24C70 28 68 34 68 38Z" fill="#C49012" stroke="#8B6914" stroke-width="0.8"/><circle cx="43" cy="44" r="3" fill="#8B6914"/><circle cx="57" cy="44" r="3" fill="#8B6914"/><circle cx="43" cy="43.5" r="1.2" fill="#FFD54F"/><circle cx="57" cy="43.5" r="1.2" fill="#FFD54F"/><ellipse cx="50" cy="52" rx="4" ry="3" fill="#C49012" stroke="#8B6914" stroke-width="1"/><path d="M48 55Q50 58 52 55" fill="none" stroke="#8B6914" stroke-width="1.2"/><path d="M44 58Q50 64 56 58" fill="none" stroke="#8B6914" stroke-width="1.2"/></svg>