<svg viewBox="0 0 100 100" xmlns="http://www.w3.org/2000/svg"><path d="M50 5L10 30V65L50 95L90 65V30Z" fill="#B22222" stroke="#D4A017" stroke-width="3"/><path d="M50 5L10 30V65L50 95L90 65V30Z" fill="none" stroke="#D4A017" stroke-width="2" stroke-dasharray="0"/><path d="M50 75C50 75 35 55 35 42C35 42 38 50 50 35C62 50 65 42 65 42C65 55 50 75 50 75Z" fill="#E8650A" stroke="#D4A017" stroke-width="1.5"/><path d="M50 70C50 70 40 55 42 45C42 45 45 52 50 40C55 52 58 45 58 45C60 55 50 70 50 70Z" fill="#FFB300"/><path d="M43 38L38 25L45 32Z" fill="#E8650A" stroke="#D4A017" stroke-width="1"/><path d="M57 38L62 25L55 32Z" fill="#E8650A" stroke="#D4A017" stroke-width="1"/><path d="M50 40L46 28L50 33L54 28Z" fill="#FFB300" stroke="#D4A017" stroke-width="0.8"/><circle cx="47" cy="44" r="1.5" fill="#B22222"/><circle cx="53" cy="44" r="1.5" fill="#B22222"/></svg>