<svg viewBox="0 0 100 100" xmlns="http://www.w3.org/2000/svg"><ellipse cx="50" cy="50" rx="42" ry="44" fill="#2D5A27" stroke="#E8860A" stroke-width="3"/><ellipse cx="50" cy="50" rx="38" ry="40" fill="none" stroke="#E8860A" stroke-width="1.5"/><path d="M55 30C55 30 65 32 68 40C70 46 68 52 62 56L58 58L62 62L65 68L60 64L55 70L52 62L50 58" fill="#E8860A" stroke="#C46E08" stroke-width="1.2"/><path d="M55 30C55 30 48 28 42 32C36 36 34 44 36 50C38 56 44 60 50 58" fill="#E8860A" stroke="#C46E08" stroke-width="1.2"/><path d="M42 32C42 32 40 28 42 24C44 22 48 22 50 26C50 26 46 28 42 32Z" fill="#C46E08"/><circle cx="48" cy="38" r="3" fill="#2D5A27" stroke="#E8860A" stroke-width="0.8"/><circle cx="48" cy="37.5" r="1.2" fill="#F4D03F"/><path d="M55 30L62 28L56 34Z" fill="#C46E08" stroke="#8B4A08" stroke-width="0.8"/><path d="M42 58L38 65L35 62" fill="none" stroke="#E8860A" stroke-width="2" stroke-linecap="round"/><path d="M38 65L36 72L40 68" fill="none" stroke="#E8860A" stroke-width="1.5" stroke-linecap="round"/><path d="M48 60L46 68L43 65" fill="none" stroke="#E8860A" stroke-width="2" stroke-linecap="round"/><path d="M46 68L44 75L48 71" fill="none" stroke="#E8860A" stroke-width="1.5" stroke-linecap="round"/></svg>