<svg viewBox="0 0 100 100" xmlns="http://www.w3.org/2000/svg"><path d="M50 5L10 30V65L50 95L90 65V30Z" fill="#3A1A5C" stroke="#9B82C4" stroke-width="3"/><path d="M50 8L13 31V63L50 91L87 63V31Z" fill="none" stroke="#9B82C4" stroke-width="1.5"/><ellipse cx="50" cy="48" rx="24" ry="18" fill="#5C2D8A" stroke="#9B82C4" stroke-width="2"/><ellipse cx="50" cy="48" rx="18" ry="12" fill="#7B4DAA" stroke="#9B82C4" stroke-width="1.5"/><ellipse cx="50" cy="48" rx="10" ry="7" fill="#9B82C4" stroke="#7B4DAA" stroke-width="1"/><circle cx="50" cy="48" r="4" fill="#C8B8E0"/><circle cx="50" cy="48" r="2" fill="#3A1A5C"/><path d="M26 48L18 48" stroke="#9B82C4" stroke-width="1.5" stroke-linecap="round"/><path d="M74 48L82 48" stroke="#9B82C4" stroke-width="1.5" stroke-linecap="round"/><path d="M50 30L50 22" stroke="#9B82C4" stroke-width="1.5" stroke-linecap="round"/><path d="M50 66L50 74" stroke="#9B82C4" stroke-width="1.5" stroke-linecap="round"/><path d="M33 35L28 28" stroke="#9B82C4" stroke-width="1.2" stroke-linecap="round"/><path d="M67 35L72 28" stroke="#9B82C4" stroke-width="1.2" stroke-linecap="round"/><path d="M33 61L28 68" stroke="#9B82C4" stroke-width="1.2" stroke-linecap="round"/><path d="M67 61L72 68" stroke="#9B82C4" stroke-width="1.2" stroke-linecap="round"/></svg>