<svg viewBox="0 0 100 100" xmlns="http://www.w3.org/2000/svg"><path d="M50 5L10 30V65L50 95L90 65V30Z" fill="#8B1A1A" stroke="#CD7F32" stroke-width="3"/><path d="M50 8L13 31V63L50 91L87 63V31Z" fill="none" stroke="#CD7F32" stroke-width="1.5"/><path d="M30 50C30 38 38 28 50 28C62 28 70 38 70 50L70 65C70 68 65 72 50 72C35 72 30 68 30 65Z" fill="#CD7F32" stroke="#A0622A" stroke-width="1.5"/><path d="M34 50C34 40 40 32 50 32C60 32 66 40 66 50L66 62C66 62 60 58 50 58C40 58 34 62 34 62Z" fill="#1A1A3A" stroke="#CD7F32" stroke-width="0.8"/><path d="M36 52L64 52" stroke="#CD7F32" stroke-width="1.5"/><path d="M50 18C50 18 46 22 46 28L50 26L54 28C54 22 50 18 50 18Z" fill="#C62828" stroke="#8B1A1A" stroke-width="1"/><path d="M50 12L50 18" stroke="#C62828" stroke-width="3" stroke-linecap="round"/><path d="M46 18Q50 14 54 18" fill="#C62828" stroke="#8B1A1A" stroke-width="0.8"/><path d="M38 55L42 62L50 58L58 62L62 55" fill="none" stroke="#CD7F32" stroke-width="1.2"/><rect x="48" y="72" width="4" height="6" fill="#CD7F32" stroke="#A0622A" stroke-width="0.8"/></svg>