<svg viewBox="0 0 100 100" xmlns="http://www.w3.org/2000/svg"><path d="M50 5L10 30V65L50 95L90 65V30Z" fill="#2D5A27" stroke="#6B8E5A" stroke-width="3"/><path d="M50 8L13 31V63L50 91L87 63V31Z" fill="none" stroke="#6B8E5A" stroke-width="1.5"/><path d="M38 35L32 22L28 28L30 18L25 22L28 12" fill="none" stroke="#8B6914" stroke-width="2.5" stroke-linecap="round"/><path d="M62 35L68 22L72 28L70 18L75 22L72 12" fill="none" stroke="#8B6914" stroke-width="2.5" stroke-linecap="round"/><path d="M32 22L26 18" fill="none" stroke="#8B6914" stroke-width="2" stroke-linecap="round"/><path d="M68 22L74 18" fill="none" stroke="#8B6914" stroke-width="2" stroke-linecap="round"/><ellipse cx="50" cy="52" rx="14" ry="18" fill="#8B6914" stroke="#6B4E0A" stroke-width="1.5"/><ellipse cx="50" cy="48" rx="12" ry="14" fill="#A07820"/><circle cx="45" cy="44" r="2" fill="#2D5A27"/><circle cx="55" cy="44" r="2" fill="#2D5A27"/><ellipse cx="50" cy="52" rx="5" ry="3.5" fill="#6B4E0A"/><circle cx="48" cy="51" r="1" fill="#2D5A27"/><circle cx="52" cy="51" r="1" fill="#2D5A27"/><path d="M36 40Q38 35 38 35" fill="none" stroke="#A07820" stroke-width="2" stroke-linecap="round"/><path d="M64 40Q62 35 62 35" fill="none" stroke="#A07820" stroke-width="2" stroke-linecap="round"/></svg>