<svg viewBox="0 0 100 100" xmlns="http://www.w3.org/2000/svg"><ellipse cx="50" cy="50" rx="42" ry="44" fill="#2A3A5C" stroke="#5A7AAA" stroke-width="3"/><ellipse cx="50" cy="50" rx="38" ry="40" fill="none" stroke="#5A7AAA" stroke-width="1.5"/><path d="M50 22C50 22 30 28 28 45C26 55 32 62 40 66C40 66 34 60 34 50C34 38 50 30 50 30C50 30 36 42 38 54C39 60 44 65 50 68C56 65 61 60 62 54C64 42 50 30 50 30C50 30 66 38 66 50C66 60 60 66 60 66C68 62 74 55 72 45C70 28 50 22 50 22Z" fill="#5A7AAA" stroke="#4A6A9A" stroke-width="1.2"/><path d="M50 30C50 30 40 40 40 50C40 58 45 63 50 65C55 63 60 58 60 50C60 40 50 30 50 30Z" fill="#7A9AC8" stroke="#5A7AAA" stroke-width="1"/><path d="M50 38C50 38 45 44 45 50C45 55 48 58 50 60C52 58 55 55 55 50C55 44 50 38 50 38Z" fill="#9AB4D8"/><circle cx="50" cy="50" r="4" fill="#B8D0E8" stroke="#7A9AC8" stroke-width="0.8"/></svg>