<svg viewBox="0 0 100 100" xmlns="http://www.w3.org/2000/svg"><path d="M50 3C50 3 15 15 15 50C15 75 50 97 50 97C50 97 85 75 85 50C85 15 50 3 50 3Z" fill="#1A3A5C" stroke="#5B9BD5" stroke-width="3"/><path d="M50 7C50 7 19 18 19 50C19 72 50 93 50 93C50 93 81 72 81 50C81 18 50 7 50 7Z" fill="none" stroke="#5B9BD5" stroke-width="1.5"/><path d="M35 72V38L32 35H42V72H35Z" fill="#8FA8C8" stroke="#5B9BD5" stroke-width="1.2"/><path d="M58 72V38L55 35H68L65 38V72H58Z" fill="#8FA8C8" stroke="#5B9BD5" stroke-width="1.2"/><rect x="30" y="30" width="40" height="8" rx="1" fill="#A0B8D0" stroke="#5B9BD5" stroke-width="1.2"/><rect x="28" y="25" width="44" height="7" rx="1" fill="#B0C8E0" stroke="#5B9BD5" stroke-width="1.2"/><rect x="32" y="70" width="36" height="6" rx="1" fill="#8FA8C8" stroke="#5B9BD5" stroke-width="1.2"/></svg>