<svg viewBox="0 0 100 100" xmlns="http://www.w3.org/2000/svg"><path d="M50 3C50 3 15 15 15 50C15 75 50 97 50 97C50 97 85 75 85 50C85 15 50 3 50 3Z" fill="#0E4D64" stroke="#2EC4B6" stroke-width="3"/><path d="M50 7C50 7 19 18 19 50C19 72 50 93 50 93C50 93 81 72 81 50C81 18 50 7 50 7Z" fill="none" stroke="#2EC4B6" stroke-width="1.5"/><rect x="48" y="35" width="4" height="45" rx="1" fill="#2EC4B6" stroke="#1A8A7D" stroke-width="1"/><path d="M50 35L50 15" stroke="#2EC4B6" stroke-width="3.5" stroke-linecap="round"/><path d="M50 15L48 22" stroke="#2EC4B6" stroke-width="2" stroke-linecap="round"/><path d="M50 15L52 22" stroke="#2EC4B6" stroke-width="2" stroke-linecap="round"/><path d="M35 30L35 18" stroke="#2EC4B6" stroke-width="3" stroke-linecap="round"/><path d="M65 30L65 18" stroke="#2EC4B6" stroke-width="3" stroke-linecap="round"/><path d="M35 30Q42 38 50 35" fill="none" stroke="#2EC4B6" stroke-width="3" stroke-linecap="round"/><path d="M65 30Q58 38 50 35" fill="none" stroke="#2EC4B6" stroke-width="3" stroke-linecap="round"/><path d="M35 18L33 24" stroke="#2EC4B6" stroke-width="1.8" stroke-linecap="round"/><path d="M35 18L37 24" stroke="#2EC4B6" stroke-width="1.8" stroke-linecap="round"/><path d="M65 18L63 24" stroke="#2EC4B6" stroke-width="1.8" stroke-linecap="round"/><path d="M65 18L67 24" stroke="#2EC4B6" stroke-width="1.8" stroke-linecap="round"/><rect x="42" y="55" width="16" height="4" rx="1" fill="#1A8A7D" stroke="#2EC4B6" stroke-width="0.8"/></svg>