<svg viewBox="0 0 100 100" xmlns="http://www.w3.org/2000/svg"><path d="M50 5L10 30V65L50 95L90 65V30Z" fill="#1B5E20" stroke="#4CAF50" stroke-width="3"/><path d="M50 8L13 31V63L50 91L87 63V31Z" fill="none" stroke="#4CAF50" stroke-width="1.5"/><path d="M55 25C65 28 72 40 68 52C65 60 58 62 50 65C42 68 35 72 33 78C33 78 30 70 38 62C44 56 52 54 56 48C60 42 58 32 50 28Z" fill="#4CAF50" stroke="#2E7D32" stroke-width="1.5"/><path d="M55 25C55 25 52 30 50 28C48 26 50 22 55 25Z" fill="#388E3C"/><path d="M50 65L47 72L50 70L53 72Z" fill="#C62828" stroke="#B71C1C" stroke-width="0.5"/><circle cx="53" cy="28" r="1.5" fill="#F4D03F"/><path d="M48 30C50 33 56 33 58 30" fill="none" stroke="#2E7D32" stroke-width="1"/><path d="M43 40C45 43 51 43 53 40" fill="none" stroke="#2E7D32" stroke-width="0.8"/><path d="M38 50C40 53 46 53 48 50" fill="none" stroke="#2E7D32" stroke-width="0.8"/></svg>