<svg viewBox="0 0 100 100" xmlns="http://www.w3.org/2000/svg"><ellipse cx="50" cy="50" rx="42" ry="44" fill="#2C3E6B" stroke="#8CA0C8" stroke-width="3"/><ellipse cx="50" cy="50" rx="38" ry="40" fill="none" stroke="#8CA0C8" stroke-width="1.5"/><path d="M32 35L28 18L40 30Z" fill="#8CA0C8" stroke="#6B82AA" stroke-width="1.2"/><path d="M68 35L72 18L60 30Z" fill="#8CA0C8" stroke="#6B82AA" stroke-width="1.2"/><ellipse cx="50" cy="48" rx="18" ry="16" fill="#8CA0C8" stroke="#6B82AA" stroke-width="1.5"/><ellipse cx="50" cy="52" rx="14" ry="12" fill="#A0B4D0"/><path d="M42 44L46 42L44 46Z" fill="#2C3E6B"/><path d="M58 44L54 42L56 46Z" fill="#2C3E6B"/><ellipse cx="50" cy="52" rx="6" ry="4" fill="#6B82AA"/><circle cx="48" cy="51" r="1.2" fill="#2C3E6B"/><circle cx="52" cy="51" r="1.2" fill="#2C3E6B"/><path d="M50 56L47 60L44 58" fill="none" stroke="#6B82AA" stroke-width="1.2" stroke-linecap="round"/><path d="M50 56L53 60L56 58" fill="none" stroke="#6B82AA" stroke-width="1.2" stroke-linecap="round"/><path d="M50 62V72L46 78" fill="none" stroke="#8CA0C8" stroke-width="2" stroke-linecap="round"/><path d="M50 72L54 78" fill="none" stroke="#8CA0C8" stroke-width="2" stroke-linecap="round"/></svg>