<svg viewBox="0 0 100 100" xmlns="http://www.w3.org/2000/svg"><circle cx="50" cy="58" r="34" fill="#E8983E"/><polygon points="18,42 14,8 36,34" fill="#E8983E" stroke="#D4852E" stroke-width="1.5"/><polygon points="82,42 86,8 64,34" fill="#E8983E" stroke="#D4852E" stroke-width="1.5"/><polygon points="20,36 18,16 32,32" fill="#E8A4C4"/><polygon points="80,36 82,16 68,32" fill="#E8A4C4"/><ellipse cx="36" cy="52" rx="8" ry="9" fill="#FDE68A"/><circle cx="36" cy="52" r="4" fill="#2D6A4F"/><ellipse cx="36" cy="52" rx="2" ry="4" fill="#1B4332"/><ellipse cx="64" cy="52" rx="8" ry="9" fill="#FDE68A"/><circle cx="64" cy="52" r="4" fill="#2D6A4F"/><ellipse cx="64" cy="52" rx="2" ry="4" fill="#1B4332"/><ellipse cx="50" cy="66" rx="5" ry="3.5" fill="#E8A4C4"/><path d="M50 69.5 L50 74" stroke="#D4852E" stroke-width="1.5"/><path d="M46 74 Q50 78 54 74" stroke="#D4852E" stroke-width="2" fill="none" stroke-linecap="round"/><line x1="16" y1="58" x2="32" y2="62" stroke="#D4852E" stroke-width="1.5" stroke-linecap="round"/><line x1="16" y1="64" x2="32" y2="66" stroke="#D4852E" stroke-width="1.5" stroke-linecap="round"/><line x1="84" y1="58" x2="68" y2="62" stroke="#D4852E" stroke-width="1.5" stroke-linecap="round"/><line x1="84" y1="64" x2="68" y2="66" stroke="#D4852E" stroke-width="1.5" stroke-linecap="round"/></svg>