<svg viewBox="0 0 100 100" xmlns="http://www.w3.org/2000/svg"><circle cx="50" cy="62" r="32" fill="#E8A87C"/><circle cx="50" cy="14" r="14" fill="#E8E0D0" stroke="#C4B8A0" stroke-width="1.5"/><circle cx="34" cy="18" r="12" fill="#E8E0D0" stroke="#C4B8A0" stroke-width="1.5"/><circle cx="66" cy="18" r="12" fill="#E8E0D0" stroke="#C4B8A0" stroke-width="1.5"/><rect x="24" y="22" width="52" height="20" rx="2" fill="#E8E0D0" stroke="#C4B8A0" stroke-width="1.5"/><rect x="24" y="36" width="52" height="6" fill="#E8E0D0"/><rect x="24" y="36" width="52" height="6" fill="#4A6A80" rx="2"/><ellipse cx="38" cy="56" rx="6" ry="6" fill="#F0DCC8"/><circle cx="38" cy="56" r="3.5" fill="#5B4A2E"/><circle cx="39.5" cy="54.5" r="1.3" fill="#ECEFF4"/><ellipse cx="62" cy="56" rx="6" ry="6" fill="#F0DCC8"/><circle cx="62" cy="56" r="3.5" fill="#5B4A2E"/><circle cx="63.5" cy="54.5" r="1.3" fill="#ECEFF4"/><ellipse cx="50" cy="66" rx="4" ry="2.5" fill="#D48A6A"/><path d="M44 74 Q50 80 56 74" stroke="#C0846A" stroke-width="2" fill="none" stroke-linecap="round"/><ellipse cx="34" cy="64" rx="5" ry="3" fill="#E8A4B8" opacity="0.35"/><ellipse cx="66" cy="64" rx="5" ry="3" fill="#E8A4B8" opacity="0.35"/><path d="M48 48 Q50 50 52 48" stroke="#C0846A" stroke-width="1.5" fill="none"/></svg>