<svg viewBox="0 0 100 100" xmlns="http://www.w3.org/2000/svg"><circle cx="50" cy="54" r="36" fill="#2D8B4E"/><path d="M18 40 L10 20 L28 32Z" fill="#22744A" stroke="#1B5E3A" stroke-width="1"/><path d="M82 40 L90 20 L72 32Z" fill="#22744A" stroke="#1B5E3A" stroke-width="1"/><path d="M30 20 L36 6 L42 20" fill="#D4642A" opacity="0.8"/><path d="M46 18 L50 4 L54 18" fill="#D4642A" opacity="0.8"/><path d="M58 20 L64 6 L70 20" fill="#D4642A" opacity="0.8"/><ellipse cx="36" cy="48" rx="10" ry="9" fill="#FBBF24"/><ellipse cx="36" cy="48" rx="4" ry="6" fill="#1B4332"/><ellipse cx="64" cy="48" rx="10" ry="9" fill="#FBBF24"/><ellipse cx="64" cy="48" rx="4" ry="6" fill="#1B4332"/><ellipse cx="50" cy="68" rx="12" ry="8" fill="#3BA86A"/><ellipse cx="46" cy="66" rx="2.5" ry="3" fill="#1B4332"/><ellipse cx="54" cy="66" rx="2.5" ry="3" fill="#1B4332"/><path d="M38 80 L42 88" stroke="#D4642A" stroke-width="3" stroke-linecap="round"/><path d="M50 82 L50 92" stroke="#E8983E" stroke-width="3" stroke-linecap="round"/><path d="M62 80 L58 88" stroke="#D4642A" stroke-width="3" stroke-linecap="round"/></svg>