<svg viewBox="0 0 100 100" xmlns="http://www.w3.org/2000/svg"><circle cx="50" cy="58" r="34" fill="#D4642A"/><polygon points="16,44 10,6 38,36" fill="#D4642A" stroke="#B8541E" stroke-width="1.5"/><polygon points="84,44 90,6 62,36" fill="#D4642A" stroke="#B8541E" stroke-width="1.5"/><polygon points="18,38 16,14 34,34" fill="#E8D4C0"/><polygon points="82,38 84,14 66,34" fill="#E8D4C0"/><path d="M30 58 Q50 42 70 58 Q70 80 50 86 Q30 80 30 58Z" fill="#E8D4C0"/><ellipse cx="38" cy="52" rx="7" ry="7" fill="#F5E6D0"/><circle cx="38" cy="52" r="3.5" fill="#5B4A2E"/><circle cx="39.5" cy="50.5" r="1.2" fill="#ECEFF4"/><ellipse cx="62" cy="52" rx="7" ry="7" fill="#F5E6D0"/><circle cx="62" cy="52" r="3.5" fill="#5B4A2E"/><circle cx="63.5" cy="50.5" r="1.2" fill="#ECEFF4"/><ellipse cx="50" cy="66" rx="5" ry="3.5" fill="#3B3B3B"/><path d="M44 72 Q50 77 56 72" stroke="#C07A5A" stroke-width="2" fill="none" stroke-linecap="round"/></svg>