<svg viewBox="0 0 100 100" xmlns="http://www.w3.org/2000/svg"><path d="M18 50 Q18 14 50 14 Q82 14 82 50 L82 70 Q82 80 72 82 L28 82 Q18 80 18 70Z" fill="#8BA4B8" stroke="#6B8498" stroke-width="2"/><rect x="14" y="46" width="72" height="8" rx="2" fill="#6B8498" stroke="#5A7488" stroke-width="1"/><rect x="30" y="52" width="40" height="30" rx="2" fill="#4A6A80"/><rect x="34" y="56" width="32" height="6" rx="2" fill="#2E2E3E"/><path d="M34 56 L34 62" stroke="#6B8498" stroke-width="1"/><path d="M42 56 L42 62" stroke="#6B8498" stroke-width="1"/><path d="M50 56 L50 62" stroke="#6B8498" stroke-width="1"/><path d="M58 56 L58 62" stroke="#6B8498" stroke-width="1"/><path d="M66 56 L66 62" stroke="#6B8498" stroke-width="1"/><rect x="44" y="14" width="12" height="18" rx="2" fill="#6B8498"/><rect x="46" y="8" width="8" height="10" rx="2" fill="#4A90D9"/><path d="M34 70 Q50 74 66 70" stroke="#8BA4B8" stroke-width="1.5" fill="none" stroke-linecap="round"/><circle cx="40" cy="38" r="4" fill="#DAE2E8"/><circle cx="40" cy="38" r="2" fill="#4A6A80"/><circle cx="60" cy="38" r="4" fill="#DAE2E8"/><circle cx="60" cy="38" r="2" fill="#4A6A80"/></svg>