<svg viewBox="0 0 100 100" xmlns="http://www.w3.org/2000/svg"><circle cx="20" cy="44" r="14" fill="#C4956A"/><circle cx="20" cy="44" r="9" fill="#E8C4A0"/><circle cx="80" cy="44" r="14" fill="#C4956A"/><circle cx="80" cy="44" r="9" fill="#E8C4A0"/><circle cx="50" cy="54" r="36" fill="#A0724A"/><path d="M26 48 Q50 32 74 48 Q74 72 50 80 Q26 72 26 48Z" fill="#E8C4A0"/><ellipse cx="38" cy="50" rx="7" ry="7" fill="#F0DCC8"/><circle cx="38" cy="50" r="4" fill="#3E2C1E"/><circle cx="39.5" cy="48.5" r="1.5" fill="#ECEFF4"/><ellipse cx="62" cy="50" rx="7" ry="7" fill="#F0DCC8"/><circle cx="62" cy="50" r="4" fill="#3E2C1E"/><circle cx="63.5" cy="48.5" r="1.5" fill="#ECEFF4"/><ellipse cx="50" cy="66" rx="12" ry="8" fill="#D4A87C"/><ellipse cx="46" cy="64" rx="2.5" ry="2" fill="#3E2C1E"/><ellipse cx="54" cy="64" rx="2.5" ry="2" fill="#3E2C1E"/><path d="M44 70 Q50 76 56 70" stroke="#8B6340" stroke-width="2" fill="none" stroke-linecap="round"/></svg>