<svg viewBox="0 0 100 100" xmlns="http://www.w3.org/2000/svg"><circle cx="50" cy="54" r="38" fill="#8B6F4E"/><polygon points="22,34 14,10 36,28" fill="#8B6F4E" stroke="#7A5E3D" stroke-width="1.5"/><polygon points="78,34 86,10 64,28" fill="#8B6F4E" stroke="#7A5E3D" stroke-width="1.5"/><polygon points="24,30 18,14 34,26" fill="#A48860"/><polygon points="76,30 82,14 66,26" fill="#A48860"/><circle cx="36" cy="48" r="14" fill="#DAC89E" stroke="#C4B080" stroke-width="1.5"/><circle cx="64" cy="48" r="14" fill="#DAC89E" stroke="#C4B080" stroke-width="1.5"/><circle cx="36" cy="48" r="8" fill="#D4962A"/><circle cx="64" cy="48" r="8" fill="#D4962A"/><circle cx="36" cy="48" r="4.5" fill="#2E2E2E"/><circle cx="64" cy="48" r="4.5" fill="#2E2E2E"/><circle cx="38" cy="46" r="2" fill="#ECEFF4"/><circle cx="66" cy="46" r="2" fill="#ECEFF4"/><polygon points="50,58 44,68 56,68" fill="#D4962A" stroke="#B87E1E" stroke-width="1"/><path d="M30 72 Q40 82 50 78 Q60 82 70 72" fill="#A48860" stroke="#8B6F4E" stroke-width="1"/></svg>