<svg viewBox="0 0 100 100" xmlns="http://www.w3.org/2000/svg"><ellipse cx="50" cy="54" rx="36" ry="40" fill="#4A4A5A"/><ellipse cx="50" cy="60" rx="24" ry="30" fill="#E8E8EC"/><ellipse cx="38" cy="46" rx="8" ry="8" fill="#E8E8EC"/><circle cx="38" cy="46" r="4.5" fill="#2E2E3E"/><circle cx="39.5" cy="44.5" r="1.5" fill="#ECEFF4"/><ellipse cx="62" cy="46" rx="8" ry="8" fill="#E8E8EC"/><circle cx="62" cy="46" r="4.5" fill="#2E2E3E"/><circle cx="63.5" cy="44.5" r="1.5" fill="#ECEFF4"/><polygon points="50,54 42,62 58,62" fill="#E8862A" stroke="#D4702A" stroke-width="1"/><path d="M12 50 Q8 64 18 76" fill="#4A4A5A" stroke="#3B3B4A" stroke-width="1.5"/><path d="M88 50 Q92 64 82 76" fill="#4A4A5A" stroke="#3B3B4A" stroke-width="1.5"/><ellipse cx="40" cy="88" rx="8" ry="4" fill="#E8862A" stroke="#D4702A" stroke-width="1"/><ellipse cx="60" cy="88" rx="8" ry="4" fill="#E8862A" stroke="#D4702A" stroke-width="1"/><path d="M44 76 Q50 80 56 76" stroke="#C0846A" stroke-width="1.5" fill="none" stroke-linecap="round"/></svg>