<svg viewBox="0 0 100 100" xmlns="http://www.w3.org/2000/svg"><circle cx="50" cy="58" r="34" fill="#E8A4C4"/><polygon points="50,2 44,34 56,34" fill="#FBBF24"/><polygon points="50,2 44,34 48,34" fill="#E879A8"/><polygon points="50,2 48,34 52,34" fill="#A78BFA"/><polygon points="50,2 52,34 56,34" fill="#60D3E8"/><polygon points="14,40 6,22 28,34" fill="#E8A4C4" stroke="#D48AAA" stroke-width="1"/><polygon points="86,40 94,22 72,34" fill="#E8A4C4" stroke="#D48AAA" stroke-width="1"/><polygon points="16,36 10,24 26,32" fill="#D48AAA"/><polygon points="84,36 90,24 74,32" fill="#D48AAA"/><ellipse cx="38" cy="54" rx="7" ry="7" fill="#F5E6F0"/><circle cx="38" cy="54" r="4" fill="#7C3AED"/><circle cx="39.5" cy="52.5" r="1.5" fill="#ECEFF4"/><ellipse cx="62" cy="54" rx="7" ry="7" fill="#F5E6F0"/><circle cx="62" cy="54" r="4" fill="#7C3AED"/><circle cx="63.5" cy="52.5" r="1.5" fill="#ECEFF4"/><ellipse cx="50" cy="68" rx="5" ry="3" fill="#D48AAA"/><path d="M44 74 Q50 80 56 74" stroke="#D48AAA" stroke-width="2" fill="none" stroke-linecap="round"/><ellipse cx="34" cy="64" rx="4" ry="2.5" fill="#F0A0C0" opacity="0.4"/><ellipse cx="66" cy="64" rx="4" ry="2.5" fill="#F0A0C0" opacity="0.4"/></svg>