<svg viewBox="0 0 100 100" xmlns="http://www.w3.org/2000/svg"><circle cx="50" cy="56" r="34" fill="#E8A87C"/><path d="M18 46 Q50 22 82 46 L80 40 Q50 18 20 40Z" fill="#8B7355" stroke="#6B5B45" stroke-width="1"/><rect x="20" y="38" width="60" height="10" rx="3" fill="#8B7355" stroke="#6B5B45" stroke-width="1"/><circle cx="16" cy="36" r="6" fill="#D4A84B" stroke="#B8922F" stroke-width="1.5"/><circle cx="84" cy="36" r="6" fill="#D4A84B" stroke="#B8922F" stroke-width="1.5"/><path d="M14 36 L8 18" stroke="#D4A84B" stroke-width="3" stroke-linecap="round"/><path d="M86 36 L92 18" stroke="#D4A84B" stroke-width="3" stroke-linecap="round"/><ellipse cx="38" cy="56" rx="6" ry="5.5" fill="#ECEFF4"/><circle cx="38" cy="56" r="3" fill="#4A7C59"/><ellipse cx="62" cy="56" rx="6" ry="5.5" fill="#ECEFF4"/><circle cx="62" cy="56" r="3" fill="#4A7C59"/><path d="M30 70 Q34 74 40 76 Q46 78 50 76 Q54 78 60 76 Q66 74 70 70" fill="#D4702A" stroke="#B85D1E" stroke-width="1"/><path d="M30 70 Q34 68 40 70 Q46 72 50 70 Q54 72 60 70 Q66 68 70 70" fill="#D4702A"/><path d="M44 64 Q50 67 56 64" stroke="#C0846A" stroke-width="2" fill="none" stroke-linecap="round"/></svg>