<svg viewBox="0 0 100 100" xmlns="http://www.w3.org/2000/svg"><circle cx="50" cy="62" r="32" fill="#D4A88C"/><path d="M25 52 L50 2 L75 52Z" fill="#6C3FAA" stroke="#8B5CF6" stroke-width="1.5"/><circle cx="50" cy="8" r="4" fill="#FBBF24"/><path d="M32 52 Q35 48 38 52" fill="none" stroke="#6C3FAA" stroke-width="1.5"/><path d="M62 52 Q65 48 68 52" fill="none" stroke="#6C3FAA" stroke-width="1.5"/><ellipse cx="38" cy="58" rx="6" ry="5.5" fill="#ECEFF4"/><circle cx="38" cy="58" r="3" fill="#6C3FAA"/><ellipse cx="62" cy="58" rx="6" ry="5.5" fill="#ECEFF4"/><circle cx="62" cy="58" r="3" fill="#6C3FAA"/><circle cx="39" cy="56.5" r="1.2" fill="#ECEFF4"/><circle cx="63" cy="56.5" r="1.2" fill="#ECEFF4"/><path d="M30 74 Q36 78 50 80 Q64 78 70 74 L72 86 Q60 96 50 96 Q40 96 28 86Z" fill="#B8B8D0" stroke="#9090A8" stroke-width="1"/><path d="M44 68 Q50 72 56 68" stroke="#C0846A" stroke-width="2" fill="none" stroke-linecap="round"/></svg>