<svg viewBox="0 0 100 100" xmlns="http://www.w3.org/2000/svg"><circle cx="50" cy="56" r="36" fill="#6B7B8D"/><polygon points="16,44 8,6 36,34" fill="#6B7B8D" stroke="#5A6A7C" stroke-width="1.5"/><polygon points="84,44 92,6 64,34" fill="#6B7B8D" stroke="#5A6A7C" stroke-width="1.5"/><polygon points="18,38 14,14 32,32" fill="#8B9BAD"/><polygon points="82,38 86,14 68,32" fill="#8B9BAD"/><path d="M28 56 Q50 40 72 56 Q72 76 50 84 Q28 76 28 56Z" fill="#B8C4D0"/><ellipse cx="36" cy="50" rx="8" ry="7" fill="#DAE2E8"/><circle cx="36" cy="50" r="4" fill="#D4962A"/><ellipse cx="36" cy="50" rx="2" ry="4" fill="#2E2E2E"/><ellipse cx="64" cy="50" rx="8" ry="7" fill="#DAE2E8"/><circle cx="64" cy="50" r="4" fill="#D4962A"/><ellipse cx="64" cy="50" rx="2" ry="4" fill="#2E2E2E"/><ellipse cx="50" cy="66" rx="8" ry="5" fill="#4A5A6C"/><ellipse cx="50" cy="64" rx="3" ry="2" fill="#2E2E2E"/><path d="M42 72 L46 78 L50 74 L54 78 L58 72" fill="#E8E8EC" stroke="#B8C4D0" stroke-width="0.5"/></svg>