<svg viewBox="0 0 100 100" xmlns="http://www.w3.org/2000/svg"><rect x="4" y="8" width="22" height="10" rx="2" fill="#3b82f6" opacity="0.9"/><rect x="4" y="28" width="22" height="10" rx="2" fill="#3b82f6" opacity="0.9"/><rect x="4" y="58" width="22" height="10" rx="2" fill="#3b82f6" opacity="0.9"/><rect x="4" y="78" width="22" height="10" rx="2" fill="#3b82f6" opacity="0.9"/><path d="M26 13 H34 V33 H26" fill="none" stroke="#64748b" stroke-width="2.5" stroke-linecap="round" stroke-linejoin="round"/><path d="M26 63 H34 V83 H26" fill="none" stroke="#64748b" stroke-width="2.5" stroke-linecap="round" stroke-linejoin="round"/><rect x="34" y="18" width="22" height="10" rx="2" fill="#2563eb" opacity="0.95"/><rect x="34" y="68" width="22" height="10" rx="2" fill="#2563eb" opacity="0.95"/><path d="M56 23 H66 V73 H56" fill="none" stroke="#475569" stroke-width="2.5" stroke-linecap="round" stroke-linejoin="round"/><rect x="66" y="43" width="26" height="14" rx="3" fill="#eab308" opacity="0.95" stroke="#ca8a04" stroke-width="1.5"/><text x="79" y="54" text-anchor="middle" fill="#422006" font-family="sans-serif" font-size="8" font-weight="bold">WIN</text><circle cx="34" cy="23" r="2.5" fill="#94a3b8"/><circle cx="34" cy="73" r="2.5" fill="#94a3b8"/><circle cx="66" cy="50" r="2.5" fill="#ca8a04"/></svg>