<svg viewBox="0 0 100 100" xmlns="http://www.w3.org/2000/svg"><path d="M30 25 H70 V50 Q70 72 50 78 Q30 72 30 50 Z" fill="#eab308" stroke="#ca8a04" stroke-width="2"/><path d="M34 29 H66 V49 Q66 68 50 74 Q34 68 34 49 Z" fill="#fbbf24" opacity="0.6"/><path d="M25 25 Q15 25 15 40 Q15 52 28 50" fill="none" stroke="#ca8a04" stroke-width="3" stroke-linecap="round"/><path d="M75 25 Q85 25 85 40 Q85 52 72 50" fill="none" stroke="#ca8a04" stroke-width="3" stroke-linecap="round"/><polygon points="50,35 53,44 62,44 55,50 57,59 50,54 43,59 45,50 38,44 47,44" fill="#ca8a04" stroke="#92400e" stroke-width="0.8"/><rect x="42" y="78" width="16" height="5" rx="1" fill="#ca8a04"/><rect x="36" y="83" width="28" height="7" rx="2" fill="#b8860b" stroke="#92400e" stroke-width="1"/><rect x="33" y="90" width="34" height="5" rx="2" fill="#a16207" stroke="#92400e" stroke-width="1"/><line x1="30" y1="20" x2="30" y2="25" stroke="#ca8a04" stroke-width="2.5" stroke-linecap="round"/><line x1="70" y1="20" x2="70" y2="25" stroke="#ca8a04" stroke-width="2.5" stroke-linecap="round"/></svg>