<svg viewBox="0 0 100 100" xmlns="http://www.w3.org/2000/svg"><path d="M20 85 Q20 50 30 30 Q35 20 40 15" fill="none" stroke="#16a34a" stroke-width="4" stroke-linecap="round"/><path d="M80 85 Q80 50 70 30 Q65 20 60 15" fill="none" stroke="#16a34a" stroke-width="4" stroke-linecap="round"/><ellipse cx="30" cy="72" rx="8" ry="5" fill="#22c55e" opacity="0.8" transform="rotate(-20,30,72)"/><ellipse cx="24" cy="60" rx="8" ry="5" fill="#22c55e" opacity="0.8" transform="rotate(-15,24,60)"/><ellipse cx="23" cy="47" rx="7" ry="4.5" fill="#22c55e" opacity="0.85" transform="rotate(-5,23,47)"/><ellipse cx="27" cy="35" rx="7" ry="4.5" fill="#22c55e" opacity="0.85" transform="rotate(10,27,35)"/><ellipse cx="35" cy="24" rx="6" ry="4" fill="#22c55e" opacity="0.9" transform="rotate(25,35,24)"/><ellipse cx="70" cy="72" rx="8" ry="5" fill="#22c55e" opacity="0.8" transform="rotate(20,70,72)"/><ellipse cx="76" cy="60" rx="8" ry="5" fill="#22c55e" opacity="0.8" transform="rotate(15,76,60)"/><ellipse cx="77" cy="47" rx="7" ry="4.5" fill="#22c55e" opacity="0.85" transform="rotate(5,77,47)"/><ellipse cx="73" cy="35" rx="7" ry="4.5" fill="#22c55e" opacity="0.85" transform="rotate(-10,73,35)"/><ellipse cx="65" cy="24" rx="6" ry="4" fill="#22c55e" opacity="0.9" transform="rotate(-25,65,24)"/><circle cx="50" cy="50" r="16" fill="#eab308" stroke="#ca8a04" stroke-width="2"/><circle cx="50" cy="50" r="12" fill="#fbbf24" opacity="0.6" stroke="#ca8a04" stroke-width="0.8"/><polygon points="50,36 53,45 62,45 55,51 57,60 50,55 43,60 45,51 38,45 47,45" fill="#ca8a04" stroke="#92400e" stroke-width="0.6"/><path d="M40 88 Q50 82 60 88" fill="none" stroke="#ca8a04" stroke-width="2.5" stroke-linecap="round"/><circle cx="42" cy="13" r="2" fill="#eab308" opacity="0.7"/><circle cx="58" cy="13" r="2" fill="#eab308" opacity="0.7"/><circle cx="50" cy="10" r="2.5" fill="#eab308" opacity="0.8"/></svg>