<svg viewBox="0 0 100 100" xmlns="http://www.w3.org/2000/svg"><clipPath id="c"><rect x="0" y="0" width="100" height="100"/></clipPath><polygon points="0,0 55,0 45,100 0,100" fill="#3b82f6" opacity="0.85"/><polygon points="55,0 100,0 100,100 45,100" fill="#dc2626" opacity="0.85"/><path d="M45,0 L55,0 L45,100 L35,100 Z" fill="#1e293b" opacity="0.3"/><rect x="25" y="32" width="50" height="36" rx="18" fill="#1e293b" opacity="0.7" stroke="#475569" stroke-width="1.5"/><text x="50" y="58" text-anchor="middle" fill="#f8fafc" font-family="sans-serif" font-size="26" font-weight="bold" letter-spacing="2">VS</text><path d="M14 18 L26 32" stroke="#60a5fa" stroke-width="3" stroke-linecap="round"/><path d="M24 14 L26 32" stroke="#60a5fa" stroke-width="3" stroke-linecap="round"/><path d="M14 18 L24 14" stroke="#60a5fa" stroke-width="2" stroke-linecap="round"/><path d="M86 18 L74 32" stroke="#f87171" stroke-width="3" stroke-linecap="round"/><path d="M76 14 L74 32" stroke="#f87171" stroke-width="3" stroke-linecap="round"/><path d="M86 18 L76 14" stroke="#f87171" stroke-width="2" stroke-linecap="round"/><path d="M14 82 L26 68" stroke="#60a5fa" stroke-width="3" stroke-linecap="round"/><path d="M24 86 L26 68" stroke="#60a5fa" stroke-width="3" stroke-linecap="round"/><path d="M14 82 L24 86" stroke="#60a5fa" stroke-width="2" stroke-linecap="round"/><path d="M86 82 L74 68" stroke="#f87171" stroke-width="3" stroke-linecap="round"/><path d="M76 86 L74 68" stroke="#f87171" stroke-width="3" stroke-linecap="round"/><path d="M86 82 L76 86" stroke="#f87171" stroke-width="2" stroke-linecap="round"/></svg>