<svg viewBox="0 0 100 100" xmlns="http://www.w3.org/2000/svg"><ellipse cx="50" cy="75" rx="42" ry="12" fill="#78716c" stroke="#57534e" stroke-width="2"/><path d="M10 55 C10 55 10 75 50 75 C90 75 90 55 90 55" fill="#a8a29e" stroke="#78716c" stroke-width="2"/><path d="M10 55 C10 55 10 42 50 42 C90 42 90 55 90 55" fill="#d6d3d1" stroke="#a8a29e" stroke-width="1.5"/><rect x="18" y="48" width="8" height="22" rx="1" fill="#d6d3d1" stroke="#a8a29e" stroke-width="1"/><rect x="30" y="46" width="8" height="24" rx="1" fill="#d6d3d1" stroke="#a8a29e" stroke-width="1"/><rect x="42" y="45" width="8" height="25" rx="1" fill="#d6d3d1" stroke="#a8a29e" stroke-width="1"/><rect x="54" y="45" width="8" height="25" rx="1" fill="#d6d3d1" stroke="#a8a29e" stroke-width="1"/><rect x="66" y="46" width="8" height="24" rx="1" fill="#d6d3d1" stroke="#a8a29e" stroke-width="1"/><rect x="78" y="48" width="8" height="22" rx="1" fill="#d6d3d1" stroke="#a8a29e" stroke-width="1"/><path d="M20 48 Q22 44 26 48" fill="none" stroke="#78716c" stroke-width="1.5"/><path d="M32 46 Q34 42 38 46" fill="none" stroke="#78716c" stroke-width="1.5"/><path d="M44 45 Q46 41 50 45" fill="none" stroke="#78716c" stroke-width="1.5"/><path d="M56 45 Q58 41 62 45" fill="none" stroke="#78716c" stroke-width="1.5"/><path d="M68 46 Q70 42 74 46" fill="none" stroke="#78716c" stroke-width="1.5"/><path d="M80 48 Q82 44 86 48" fill="none" stroke="#78716c" stroke-width="1.5"/><path d="M14 38 C14 38 14 30 50 26 C86 30 86 38 86 38" fill="none" stroke="#a8a29e" stroke-width="2"/></svg>
