<svg viewBox="0 0 100 100" xmlns="http://www.w3.org/2000/svg"><path d="M25 80 C20 65 18 50 22 35 C24 28 28 22 34 18" fill="none" stroke="#16a34a" stroke-width="3" stroke-linecap="round"/><path d="M75 80 C80 65 82 50 78 35 C76 28 72 22 66 18" fill="none" stroke="#16a34a" stroke-width="3" stroke-linecap="round"/><ellipse cx="20" cy="70" rx="6" ry="10" transform="rotate(-15 20 70)" fill="#22c55e" stroke="#15803d" stroke-width="1.5"/><ellipse cx="18" cy="55" rx="6" ry="10" transform="rotate(-25 18 55)" fill="#22c55e" stroke="#15803d" stroke-width="1.5"/><ellipse cx="20" cy="40" rx="5" ry="9" transform="rotate(-35 20 40)" fill="#22c55e" stroke="#15803d" stroke-width="1.5"/><ellipse cx="26" cy="28" rx="5" ry="8" transform="rotate(-50 26 28)" fill="#22c55e" stroke="#15803d" stroke-width="1.5"/><ellipse cx="80" cy="70" rx="6" ry="10" transform="rotate(15 80 70)" fill="#22c55e" stroke="#15803d" stroke-width="1.5"/><ellipse cx="82" cy="55" rx="6" ry="10" transform="rotate(25 82 55)" fill="#22c55e" stroke="#15803d" stroke-width="1.5"/><ellipse cx="80" cy="40" rx="5" ry="9" transform="rotate(35 80 40)" fill="#22c55e" stroke="#15803d" stroke-width="1.5"/><ellipse cx="74" cy="28" rx="5" ry="8" transform="rotate(50 74 28)" fill="#22c55e" stroke="#15803d" stroke-width="1.5"/><path d="M38 88 L50 82 L62 88" fill="none" stroke="#eab308" stroke-width="3" stroke-linecap="round" stroke-linejoin="round"/></svg>
