<svg viewBox="0 0 100 100" xmlns="http://www.w3.org/2000/svg"><path d="M50 8 C42 20 38 28 42 38 C44 42 48 44 50 44 C52 44 56 42 58 38 C62 28 58 20 50 8 Z" fill="#f97316" stroke="#ea580c" stroke-width="1.5"/><path d="M50 14 C46 22 44 28 46 34 C47 37 49 38 50 38 C51 38 53 37 54 34 C56 28 54 22 50 14 Z" fill="#fbbf24" stroke="#f97316" stroke-width="1"/><path d="M50 18 C48 24 47 28 48 32 C49 34 50 34 50 34 C50 34 51 34 52 32 C53 28 52 24 50 18 Z" fill="#fef08a"/><rect x="44" y="42" width="12" height="8" rx="2" fill="#ca8a04" stroke="#a16207" stroke-width="1.5"/><path d="M46 50 L44 52 L42 90 C42 92 44 94 50 94 C56 94 58 92 58 90 L56 52 L54 50 Z" fill="#eab308" stroke="#ca8a04" stroke-width="2"/><path d="M42 58 L58 58" stroke="#ca8a04" stroke-width="1.5"/><path d="M42 68 L58 68" stroke="#ca8a04" stroke-width="1"/></svg>
